<svg width="306" height="347" viewBox="0 0 306 347" fill="none" xmlns="http://www.w3.org/2000/svg">
<path d="M145.61 216.4C135.035 222.8 123.227 226 110.185 226C103.576 226 97.4952 224.8 92.0316 222.4C86.48 220 81.7214 216.5 77.7559 212.1C73.7904 207.7 70.6181 202.3 68.415 196.1C66.1239 189.9 65.0664 183 65.0664 175.4C65.0664 167.6 66.212 160.6 68.415 154.2C70.7062 147.8 73.7904 142.4 77.7559 137.9C81.7214 133.4 86.48 130 92.0316 127.5C97.5833 125.1 103.576 123.9 110.185 123.9C116.706 123.9 122.874 124.8 128.514 126.6C134.242 128.4 139.353 131.6 143.847 136.1L132.568 149C129.836 146 126.487 143.7 122.61 142C118.732 140.4 114.591 139.5 110.185 139.5C105.779 139.5 101.725 140.4 98.2001 142.2C94.5871 144 91.5029 146.5 88.9474 149.6C86.3918 152.8 84.365 156.4 82.9551 160.6C81.5452 164.8 80.8402 169.3 80.8402 174.2C80.8402 179.4 81.5452 184.2 82.9551 188.6C84.365 193 86.3918 196.8 88.9474 200C91.5029 203.2 94.5871 205.7 98.2001 207.5C101.813 209.3 105.779 210.2 110.185 210.2C114.062 210.2 117.675 209.8 121.112 209C124.548 208.2 127.545 206.9 130.276 205.2V182.3H112.74V166.7H145.521V216.4H145.61Z" fill="black"/>
<path d="M198.467 193L178.728 170.7L188.245 159.9L198.467 171.5L242.44 121.6L251.957 132.3L198.467 193Z" fill="black"/>
<path d="M195.858 226.9C171.184 226.9 151.18 204.2 151.18 176.2C151.18 148.2 171.184 125.5 195.858 125.5C204.053 125.5 212.073 128 219.034 132.9L212.073 145.9C207.226 142.5 201.586 140.7 195.858 140.7C178.586 140.7 164.575 156.6 164.575 176.2C164.575 195.8 178.586 211.7 195.858 211.7C213.13 211.7 227.141 195.8 227.141 176.2C227.141 173 226.789 169.9 226.084 166.9L239.038 162.9C240.095 167.2 240.624 171.7 240.624 176.2C240.536 204.2 220.444 226.9 195.858 226.9Z" fill="black"/>
<path d="M152.651 346.2C68.5827 346.2 0.200195 268.6 0.200195 173.2C0.200195 77.7999 68.5827 0.199951 152.651 0.199951C236.719 0.199951 305.101 77.7999 305.101 173.2C305.101 268.6 236.719 346.2 152.651 346.2ZM152.651 10.8C73.6938 10.8 9.54111 83.7 9.54111 173.2C9.54111 262.7 73.7819 335.6 152.651 335.6C231.52 335.6 295.761 262.7 295.761 173.2C295.761 83.6 231.608 10.8 152.651 10.8Z" fill="black"/>
</svg>
